<?xml version="1.0" encoding="utf-8"?>
<!-- Generator: Adobe Illustrator 15.1.0, SVG Export Plug-In . SVG Version: 6.00 Build 0)  -->
<!DOCTYPE svg PUBLIC "-//W3C//DTD SVG 1.1//EN" "http://www.w3.org/Graphics/SVG/1.1/DTD/svg11.dtd">
<svg version="1.1" id="svg2474" xmlns:svg="http://www.w3.org/2000/svg"
	 xmlns="http://www.w3.org/2000/svg" xmlns:xlink="http://www.w3.org/1999/xlink" x="0px" y="0px" width="1024px" height="598px"
	 viewBox="0 0 1024 598" enable-background="new 0 0 1024 598" xml:space="preserve">
<path fill="#FFFFFF" d="M32.658,331.855c-2.065,0-3.704,1.597-3.97,3.874l-7.237,54.973l7.237,54.023
	c0.266,2.278,1.905,3.863,3.97,3.863c2,0,3.629-1.574,3.948-3.842l0,0v-0.01c0,0,0,0,0,0.01l8.579-54.045l-8.579-54.983
	C36.297,333.452,34.648,331.855,32.658,331.855z"/>
<path fill="#FFFFFF" d="M73.357,301.82c-0.341-2.363-2.033-3.991-4.119-3.991c-2.097,0-3.832,1.682-4.119,3.991
	c0,0.021-9.728,88.882-9.728,88.882l9.728,86.911c0.277,2.331,2.012,4.013,4.119,4.013c2.076,0,3.768-1.639,4.108-3.991
	l11.069-86.933L73.357,301.82z"/>
<path fill="#FFFFFF" d="M226.661,219.836c-3.991,0-7.291,3.267-7.482,7.418l-7.748,163.522l7.748,105.676
	c0.202,4.129,3.491,7.386,7.482,7.386c3.97,0,7.259-3.268,7.493-7.407v0.032l8.759-105.687l-8.759-163.522
	C233.919,223.104,230.631,219.836,226.661,219.836z"/>
<path fill="#FFFFFF" d="M147.316,276.671c-3.065,0-5.566,2.448-5.812,5.715l-8.727,108.347l8.727,104.824
	c0.234,3.246,2.746,5.694,5.812,5.694c3.033,0,5.534-2.448,5.8-5.694l9.919-104.824l-9.919-108.369
	C152.851,279.119,150.35,276.671,147.316,276.671z"/>
<path fill="#FFFFFF" d="M307.293,503.827c4.949,0,8.972-3.991,9.174-9.1l7.6-103.898l-7.589-217.706
	c-0.202-5.109-4.226-9.1-9.174-9.1c-4.992,0-9.025,4.002-9.185,9.111c0,0.01-6.737,217.684-6.737,217.684l6.737,103.941
	C298.279,499.825,302.312,503.827,307.293,503.827z"/>
<path fill="#FFFFFF" d="M472.369,504.317c6.812,0,12.431-5.609,12.559-12.506v0.074v-0.074l5.3-100.918l-5.3-251.435
	c-0.117-6.886-5.747-12.505-12.559-12.505c-6.822,0-12.453,5.609-12.56,12.516l-4.736,251.338c0,0.16,4.736,101.067,4.736,101.067
	C459.916,498.708,465.557,504.317,472.369,504.317z"/>
<path fill="#FFFFFF" d="M389.203,503.923c5.928,0,10.707-4.757,10.866-10.823v0.074l6.45-102.323l-6.46-219.281
	c-0.16-6.066-4.938-10.813-10.867-10.813c-5.971,0-10.749,4.747-10.877,10.813l-5.737,219.292l5.748,102.302
	C378.453,499.166,383.232,503.923,389.203,503.923z"/>
<path fill="#FFFFFF" d="M186.834,502.966c3.523,0,6.375-2.82,6.642-6.535l9.345-105.697l-9.345-100.546
	c-0.255-3.714-3.108-6.514-6.642-6.514c-3.576,0-6.428,2.82-6.652,6.557l-8.227,100.503l8.227,105.687
	C180.417,500.146,183.258,502.966,186.834,502.966z"/>
<path fill="#FFFFFF" d="M108.118,497.176c2.575,0,4.662-2.033,4.959-4.843l10.494-101.621L113.088,285.26
	c-0.309-2.82-2.395-4.854-4.97-4.854c-2.608,0-4.694,2.044-4.96,4.854c0,0.011-9.238,105.452-9.238,105.452l9.238,101.6
	C103.413,495.132,105.499,497.176,108.118,497.176z"/>
<path fill="#FFFFFF" d="M430.626,167.919c-6.438,0-11.601,5.119-11.729,11.676l-5.236,211.277l5.236,101.663
	c0.128,6.471,5.279,11.591,11.729,11.591c6.429,0,11.559-5.109,11.708-11.665v0.085l5.875-101.664l-5.875-211.309
	C442.185,173.038,437.055,167.919,430.626,167.919z"/>
<path fill="#FFFFFF" d="M266.828,504.04c4.449,0,8.121-3.629,8.333-8.259l8.174-104.974l-8.174-200.921
	c-0.224-4.641-3.885-8.259-8.333-8.259c-4.491,0-8.153,3.629-8.344,8.259c0,0.01-7.237,200.921-7.237,200.921l7.248,105.017
	C258.675,500.411,262.337,504.04,266.828,504.04z"/>
<path fill="#FFFFFF" d="M358.104,494.132v-0.054l7.024-103.238l-7.024-225.039c-0.17-5.587-4.576-9.973-10.015-9.973
	c-5.471,0-9.877,4.375-10.026,9.973l-6.236,225.028l6.247,103.292c0.149,5.534,4.556,9.908,10.016,9.908
	c5.449,0,9.834-4.374,10.015-9.94V494.132z"/>
<path fill="#FFFFFF" d="M889.389,261.121c-16.678,0-32.59,3.374-47.085,9.451c-9.686-109.709-101.685-195.77-213.906-195.77
	c-27.46,0-54.228,5.407-77.865,14.549c-9.186,3.555-11.633,7.216-11.719,14.315v386.347c0.097,7.45,5.875,13.655,13.145,14.39
	c0.309,0.032,335.249,0.202,337.42,0.202c67.223,0,121.726-54.504,121.726-121.736C1011.104,315.635,956.61,261.121,889.389,261.121
	z"/>
<path fill="#FFFFFF" d="M513.93,103.326c-7.312,0-13.314,6.003-13.421,13.378l-5.491,274.221l5.502,99.524
	c0.096,7.27,6.099,13.261,13.41,13.261c7.291,0,13.294-5.991,13.4-13.367v0.117l5.971-99.535l-5.971-274.242
	C527.224,109.329,521.221,103.326,513.93,103.326z"/>
</svg>
